<svg width="640" height="360" viewBox="0 0 640 360" xmlns="http://www.w3.org/2000/svg" role="img" aria-label="Facility booking illustration">
  <rect width="640" height="360" fill="#E3F2FD"/>
  <rect x="110" y="55" width="420" height="250" rx="18" fill="#FFFFFF" stroke="#C7DDF8" stroke-width="4"/>
  <rect x="140" y="90" width="120" height="20" rx="10" fill="#003366"/>
  <rect x="140" y="128" width="360" height="1" fill="#C7DDF8"/>
  <rect x="150" y="145" width="58" height="44" rx="8" fill="#0056D2"/>
  <rect x="220" y="145" width="58" height="44" rx="8" fill="#EAF5FF"/>
  <rect x="290" y="145" width="58" height="44" rx="8" fill="#EAF5FF"/>
  <rect x="360" y="145" width="58" height="44" rx="8" fill="#EAF5FF"/>
  <rect x="430" y="145" width="58" height="44" rx="8" fill="#EAF5FF"/>
  <rect x="150" y="202" width="58" height="44" rx="8" fill="#EAF5FF"/>
  <rect x="220" y="202" width="58" height="44" rx="8" fill="#EAF5FF"/>
  <rect x="290" y="202" width="58" height="44" rx="8" fill="#EAF5FF"/>
  <rect x="360" y="202" width="58" height="44" rx="8" fill="#0056D2"/>
  <rect x="430" y="202" width="58" height="44" rx="8" fill="#EAF5FF"/>
</svg>